<svg width="24" height="24" viewBox="0 0 24 24" fill="none" xmlns="http://www.w3.org/2000/svg">
<circle cx="12" cy="12" r="8.6" fill="#7E869E" fill-opacity="0.25" stroke="#231F20" stroke-width="1.2"/>
<path d="M16.5 12.6C16.8314 12.6 17.1 12.3314 17.1 12C17.1 11.6686 16.8314 11.4 16.5 11.4V12.6ZM12.6 8.5C12.6 8.16863 12.3314 7.9 12 7.9C11.6686 7.9 11.4 8.16863 11.4 8.5H12.6ZM16.5 11.4H12.25V12.6H16.5V11.4ZM12.6 11.75V8.5H11.4V11.75H12.6ZM12.25 11.4C12.4433 11.4 12.6 11.5567 12.6 11.75H11.4C11.4 12.2194 11.7806 12.6 12.25 12.6V11.4Z" fill="#231F20"/>
</svg>
