<svg width="24" height="24" viewBox="0 0 24 24" fill="none" xmlns="http://www.w3.org/2000/svg">
<path d="M5 17H9C10.6569 17 12 18.3431 12 20V10C12 7.17157 12 5.75736 11.1213 4.87868C10.2426 4 8.82843 4 6 4H5C4.05719 4 3.58579 4 3.29289 4.29289C3 4.58579 3 5.05719 3 6V15C3 15.9428 3 16.4142 3.29289 16.7071C3.58579 17 4.05719 17 5 17Z" fill="#7E869E" fill-opacity="0.25"/>
<path d="M9 17.6H5V16.4H9V17.6ZM2.4 15V6H3.6V15H2.4ZM5 3.4H6V4.6H5V3.4ZM12.6 10V20H11.4V10H12.6ZM6 3.4C7.39725 3.4 8.50555 3.39873 9.37176 3.51519C10.2552 3.63397 10.9762 3.88501 11.5456 4.45442L10.6971 5.30294C10.3878 4.99367 9.96228 4.80537 9.21187 4.70448C8.4442 4.60127 7.43118 4.6 6 4.6V3.4ZM11.4 10C11.4 8.56882 11.3987 7.5558 11.2955 6.78813C11.1946 6.03772 11.0063 5.61222 10.6971 5.30294L11.5456 4.45442C12.115 5.02382 12.366 5.74476 12.4848 6.62824C12.6013 7.49445 12.6 8.60275 12.6 10H11.4ZM2.4 6C2.4 5.54556 2.39873 5.14437 2.44196 4.82278C2.48752 4.48393 2.59212 4.14514 2.86863 3.86863L3.71716 4.71716C3.70077 4.73354 3.65893 4.7769 3.63126 4.98268C3.60127 5.20572 3.6 5.51163 3.6 6H2.4ZM5 4.6C4.51163 4.6 4.20572 4.60127 3.98268 4.63126C3.7769 4.65893 3.73354 4.70077 3.71716 4.71716L2.86863 3.86863C3.14514 3.59212 3.48393 3.48752 3.82278 3.44196C4.14437 3.39873 4.54556 3.4 5 3.4V4.6ZM5 17.6C4.54556 17.6 4.14437 17.6013 3.82278 17.558C3.48393 17.5125 3.14514 17.4079 2.86863 17.1314L3.71716 16.2828C3.73354 16.2992 3.7769 16.3411 3.98268 16.3687C4.20572 16.3987 4.51163 16.4 5 16.4V17.6ZM3.6 15C3.6 15.4884 3.60127 15.7943 3.63126 16.0173C3.65893 16.2231 3.70077 16.2665 3.71716 16.2828L2.86863 17.1314C2.59212 16.8549 2.48752 16.5161 2.44196 16.1772C2.39873 15.8556 2.4 15.4544 2.4 15H3.6ZM9 16.4C10.9882 16.4 12.6 18.0118 12.6 20H11.4C11.4 18.6745 10.3255 17.6 9 17.6V16.4Z" fill="#231F20"/>
<path d="M19 17H15C13.3431 17 12 18.3431 12 20V10C12 7.17157 12 5.75736 12.8787 4.87868C13.7574 4 15.1716 4 18 4H19C19.9428 4 20.4142 4 20.7071 4.29289C21 4.58579 21 5.05719 21 6V15C21 15.9428 21 16.4142 20.7071 16.7071C20.4142 17 19.9428 17 19 17Z" fill="#7E869E" fill-opacity="0.25"/>
<path d="M15 17.6H19V16.4H15V17.6ZM21.6 15V6H20.4V15H21.6ZM19 3.4H18V4.6H19V3.4ZM11.4 10V20H12.6V10H11.4ZM18 3.4C16.6027 3.4 15.4945 3.39873 14.6282 3.51519C13.7448 3.63397 13.0238 3.88501 12.4544 4.45442L13.3029 5.30294C13.6122 4.99367 14.0377 4.80537 14.7881 4.70448C15.5558 4.60127 16.5688 4.6 18 4.6V3.4ZM12.6 10C12.6 8.56882 12.6013 7.5558 12.7045 6.78813C12.8054 6.03772 12.9937 5.61222 13.3029 5.30294L12.4544 4.45442C11.885 5.02382 11.634 5.74476 11.5152 6.62824C11.3987 7.49445 11.4 8.60275 11.4 10H12.6ZM21.6 6C21.6 5.54556 21.6013 5.14437 21.558 4.82278C21.5125 4.48393 21.4079 4.14514 21.1314 3.86863L20.2828 4.71716C20.2992 4.73354 20.3411 4.7769 20.3687 4.98268C20.3987 5.20572 20.4 5.51163 20.4 6H21.6ZM19 4.6C19.4884 4.6 19.7943 4.60127 20.0173 4.63126C20.2231 4.65893 20.2665 4.70077 20.2828 4.71716L21.1314 3.86863C20.8549 3.59212 20.5161 3.48752 20.1772 3.44196C19.8556 3.39873 19.4544 3.4 19 3.4V4.6ZM19 17.6C19.4544 17.6 19.8556 17.6013 20.1772 17.558C20.5161 17.5125 20.8549 17.4079 21.1314 17.1314L20.2828 16.2828C20.2665 16.2992 20.2231 16.3411 20.0173 16.3687C19.7943 16.3987 19.4884 16.4 19 16.4V17.6ZM20.4 15C20.4 15.4884 20.3987 15.7943 20.3687 16.0173C20.3411 16.2231 20.2992 16.2665 20.2828 16.2828L21.1314 17.1314C21.4079 16.8549 21.5125 16.5161 21.558 16.1772C21.6013 15.8556 21.6 15.4544 21.6 15H20.4ZM15 16.4C13.0118 16.4 11.4 18.0118 11.4 20H12.6C12.6 18.6745 13.6745 17.6 15 17.6V16.4Z" fill="#231F20"/>
</svg>
