<svg width="16" height="16" viewBox="0 0 16 16" fill="none" xmlns="http://www.w3.org/2000/svg">
<ellipse cx="8" cy="6.6665" rx="2" ry="2" fill="#231F20"/>
<circle cx="8" cy="8" r="6" stroke="#231F20" stroke-width="1.2"/>
<path d="M11.9146 12.5389C11.9659 12.4978 11.9866 12.429 11.9635 12.3676C11.7129 11.7012 11.2089 11.1137 10.5209 10.6888C9.79773 10.2421 8.9116 10 8 10C7.0884 10 6.20228 10.2421 5.47906 10.6888C4.79109 11.1137 4.28711 11.7012 4.03652 12.3676C4.01339 12.429 4.0341 12.4978 4.08542 12.5389C6.37464 14.368 9.62536 14.368 11.9146 12.5389Z" fill="#7E869E" fill-opacity="0.25"/>
<path d="M4.03652 12.3676L4.59812 12.5788L4.03652 12.3676ZM11.9635 12.3676L11.4019 12.5788L11.9635 12.3676ZM12.5251 12.1564C12.2217 11.3496 11.6215 10.6634 10.8362 10.1783L10.2056 11.1993C10.7963 11.5641 11.2041 12.0528 11.4019 12.5788L12.5251 12.1564ZM10.8362 10.1783C10.0114 9.66886 9.01458 9.4 8 9.4V10.6C8.80862 10.6 9.58408 10.8154 10.2056 11.1993L10.8362 10.1783ZM8 9.4C6.98543 9.4 5.98863 9.66886 5.16376 10.1783L5.79435 11.1993C6.41592 10.8154 7.19138 10.6 8 10.6V9.4ZM5.16376 10.1783C4.37846 10.6634 3.77831 11.3496 3.47491 12.1564L4.59812 12.5788C4.7959 12.0528 5.20372 11.5641 5.79435 11.1993L5.16376 10.1783ZM3.47491 12.1564C3.35559 12.4737 3.46723 12.8129 3.71089 13.0076L4.45996 12.0701C4.60097 12.1828 4.67119 12.3844 4.59812 12.5788L3.47491 12.1564ZM3.71089 13.0076C6.21913 15.0117 9.78087 15.0117 12.2891 13.0076L11.54 12.0701C9.46985 13.7242 6.53015 13.7242 4.45996 12.0701L3.71089 13.0076ZM11.4019 12.5788C11.3288 12.3844 11.399 12.1828 11.54 12.0701L12.2891 13.0076C12.5328 12.8129 12.6444 12.4737 12.5251 12.1564L11.4019 12.5788Z" fill="#231F20"/>
</svg>
