<svg width="124" height="42" viewBox="0 0 124 42" fill="none" xmlns="http://www.w3.org/2000/svg">
<path d="M17.088 28.2694C18.752 28.2694 20.072 28.7735 21.048 29.7817C22.04 30.7899 22.536 32.1901 22.536 33.9825V41.808H18.456V34.5346C18.456 33.6704 18.224 33.0063 17.76 32.5422C17.312 32.0621 16.688 31.8221 15.888 31.8221C15.088 31.8221 14.456 32.0621 13.992 32.5422C13.544 33.0063 13.32 33.6704 13.32 34.5346V41.808H9.24V34.5346C9.24 33.6704 9.008 33.0063 8.544 32.5422C8.096 32.0621 7.472 31.8221 6.672 31.8221C5.872 31.8221 5.24 32.0621 4.776 32.5422C4.328 33.0063 4.104 33.6704 4.104 34.5346V41.808H0V28.4134H4.104V30.0937C4.52 29.5336 5.064 29.0935 5.736 28.7735C6.408 28.4374 7.168 28.2694 8.016 28.2694C9.024 28.2694 9.92 28.4854 10.704 28.9175C11.504 29.3496 12.128 29.9657 12.576 30.7659C13.04 30.0297 13.672 29.4296 14.472 28.9655C15.272 28.5014 16.144 28.2694 17.088 28.2694Z" fill="#6B24A4"/>
<path d="M38.0303 34.8946C38.0303 35.2787 38.0063 35.6788 37.9583 36.0949H28.6702C28.7342 36.927 28.9982 37.5672 29.4622 38.0152C29.9422 38.4473 30.5263 38.6634 31.2143 38.6634C32.2383 38.6634 32.9503 38.2313 33.3503 37.3671H37.7183C37.4943 38.2473 37.0863 39.0394 36.4943 39.7436C35.9183 40.4477 35.1902 40.9998 34.3102 41.3999C33.4302 41.8 32.4462 42 31.3582 42C30.0462 42 28.8783 41.7199 27.8542 41.1598C26.8302 40.5997 26.0303 39.7996 25.4543 38.7594C24.8783 37.7192 24.5903 36.503 24.5903 35.1107C24.5903 33.7184 24.8703 32.5022 25.4303 31.462C26.0063 30.4218 26.8062 29.6216 27.8302 29.0615C28.8542 28.5014 30.0302 28.2214 31.3582 28.2214C32.6543 28.2214 33.8063 28.4934 34.8143 29.0375C35.8223 29.5816 36.6063 30.3578 37.1663 31.366C37.7423 32.3742 38.0303 33.5504 38.0303 34.8946ZM33.8302 33.8144C33.8302 33.1103 33.5902 32.5502 33.1102 32.1341C32.6302 31.718 32.0303 31.51 31.3103 31.51C30.6223 31.51 30.0383 31.71 29.5583 32.1101C29.0943 32.5102 28.8063 33.0783 28.6943 33.8144H33.8302Z" fill="#6B24A4"/>
<path d="M39.3793 35.0867C39.3793 33.7104 39.6353 32.5022 40.1473 31.462C40.6753 30.4218 41.3873 29.6216 42.2833 29.0615C43.1793 28.5014 44.1793 28.2214 45.2833 28.2214C46.1633 28.2214 46.9633 28.4054 47.6833 28.7735C48.4193 29.1415 48.9953 29.6376 49.4113 30.2618V24.0446H53.5153V41.808H49.4113V39.8876C49.0273 40.5277 48.4753 41.0398 47.7553 41.4239C47.0513 41.808 46.2273 42 45.2833 42C44.1793 42 43.1793 41.7199 42.2833 41.1598C41.3873 40.5837 40.6753 39.7756 40.1473 38.7354C39.6353 37.6792 39.3793 36.4629 39.3793 35.0867ZM49.4113 35.1107C49.4113 34.0865 49.1233 33.2783 48.5473 32.6862C47.9873 32.0941 47.2993 31.7981 46.4833 31.7981C45.6673 31.7981 44.9713 32.0941 44.3953 32.6862C43.8353 33.2623 43.5553 34.0625 43.5553 35.0867C43.5553 36.1109 43.8353 36.927 44.3953 37.5351C44.9713 38.1273 45.6673 38.4233 46.4833 38.4233C47.2993 38.4233 47.9873 38.1273 48.5473 37.5351C49.1233 36.943 49.4113 36.1349 49.4113 35.1107Z" fill="#6B24A4"/>
<path d="M58.5484 27.0211C57.8284 27.0211 57.2364 26.8131 56.7724 26.397C56.3244 25.9649 56.1004 25.4368 56.1004 24.8127C56.1004 24.1726 56.3244 23.6445 56.7724 23.2284C57.2364 22.7963 57.8284 22.5803 58.5484 22.5803C59.2524 22.5803 59.8284 22.7963 60.2764 23.2284C60.7404 23.6445 60.9724 24.1726 60.9724 24.8127C60.9724 25.4368 60.7404 25.9649 60.2764 26.397C59.8284 26.8131 59.2524 27.0211 58.5484 27.0211ZM60.5884 28.4134V41.808H56.4844V28.4134H60.5884Z" fill="#6B24A4"/>
<path d="M62.7465 35.0867C62.7465 33.7104 63.0025 32.5022 63.5145 31.462C64.0425 30.4218 64.7545 29.6216 65.6505 29.0615C66.5465 28.5014 67.5465 28.2214 68.6505 28.2214C69.5945 28.2214 70.4185 28.4134 71.1225 28.7975C71.8425 29.1816 72.3945 29.6857 72.7785 30.3098V28.4134H76.8825V41.808H72.7785V39.9116C72.3785 40.5357 71.8185 41.0398 71.0985 41.4239C70.3945 41.808 69.5705 42 68.6265 42C67.5385 42 66.5465 41.7199 65.6505 41.1598C64.7545 40.5837 64.0425 39.7756 63.5145 38.7354C63.0025 37.6792 62.7465 36.4629 62.7465 35.0867ZM72.7785 35.1107C72.7785 34.0865 72.4905 33.2783 71.9145 32.6862C71.3545 32.0941 70.6665 31.7981 69.8505 31.7981C69.0345 31.7981 68.3385 32.0941 67.7625 32.6862C67.2025 33.2623 66.9225 34.0625 66.9225 35.0867C66.9225 36.1109 67.2025 36.927 67.7625 37.5351C68.3385 38.1273 69.0345 38.4233 69.8505 38.4233C70.6665 38.4233 71.3545 38.1273 71.9145 37.5351C72.4905 36.943 72.7785 36.1349 72.7785 35.1107Z" fill="#6B24A4"/>
<path d="M2.112 0.0240043V16.8032H0.432V0.0240043H2.112Z" fill="#231F20"/>
<path d="M10.8844 0.0240043C12.7404 0.0240043 14.3324 0.360069 15.6604 1.0322C16.9884 1.70433 18.0044 2.67251 18.7084 3.93675C19.4124 5.20099 19.7644 6.70528 19.7644 8.44961C19.7644 10.1779 19.4124 11.6742 18.7084 12.9385C18.0044 14.1867 16.9884 15.1469 15.6604 15.819C14.3324 16.4751 12.7404 16.8032 10.8844 16.8032H5.91638V0.0240043H10.8844ZM10.8844 15.4109C13.2204 15.4109 14.9964 14.8028 16.2124 13.5866C17.4444 12.3544 18.0604 10.642 18.0604 8.44961C18.0604 6.24119 17.4444 4.52086 16.2124 3.28863C14.9964 2.04039 13.2204 1.41627 10.8844 1.41627H7.59637V15.4109H10.8844Z" fill="#231F20"/>
<path d="M24.5417 1.39227V7.65746H30.9017V9.04972H24.5417V15.4109H31.6217V16.8032H22.8617V0H31.6217V1.39227H24.5417Z" fill="#231F20"/>
<path d="M44.652 12.8184H37.02L35.556 16.8032H33.78L39.9 0.240045H41.796L47.892 16.8032H46.116L44.652 12.8184ZM44.148 11.4262L40.836 2.35245L37.524 11.4262H44.148Z" fill="#231F20"/>
<path d="M52.2682 15.4349H58.2922V16.8032H50.5882V0.0240043H52.2682V15.4349Z" fill="#231F20"/>
<path d="M72.2917 16.9952C71.1237 16.9952 70.0838 16.7952 69.1718 16.3951C68.2598 15.995 67.5397 15.4509 67.0117 14.7628C66.4837 14.0587 66.1877 13.2745 66.1237 12.4104H70.1797C70.2277 12.8745 70.4438 13.2505 70.8278 13.5386C71.2118 13.8266 71.6838 13.9707 72.2438 13.9707C72.7558 13.9707 73.1477 13.8746 73.4197 13.6826C73.7077 13.4746 73.8517 13.2105 73.8517 12.8905C73.8517 12.5064 73.6517 12.2263 73.2517 12.0503C72.8517 11.8583 72.2037 11.6502 71.3077 11.4262C70.3477 11.2021 69.5477 10.9701 68.9077 10.73C68.2677 10.474 67.7157 10.0819 67.2517 9.55382C66.7877 9.00972 66.5557 8.28158 66.5557 7.3694C66.5557 6.60126 66.7637 5.90513 67.1797 5.28101C67.6117 4.64088 68.2358 4.13679 69.0518 3.76872C69.8838 3.40065 70.8677 3.21661 72.0037 3.21661C73.6837 3.21661 75.0038 3.63269 75.9638 4.46485C76.9398 5.29701 77.4998 6.40122 77.6438 7.77748H73.8517C73.7877 7.31339 73.5798 6.94532 73.2278 6.67327C72.8918 6.40122 72.4438 6.26519 71.8838 6.26519C71.4038 6.26519 71.0357 6.36121 70.7797 6.55325C70.5237 6.72928 70.3958 6.97733 70.3958 7.29739C70.3958 7.68146 70.5958 7.96952 70.9958 8.16156C71.4118 8.35359 72.0517 8.54563 72.9157 8.73766C73.9077 8.99371 74.7158 9.24976 75.3398 9.50581C75.9638 9.74586 76.5077 10.1459 76.9717 10.706C77.4517 11.2501 77.6998 11.9863 77.7158 12.9145C77.7158 13.6986 77.4917 14.4027 77.0437 15.0269C76.6117 15.635 75.9798 16.1151 75.1478 16.4671C74.3318 16.8192 73.3797 16.9952 72.2917 16.9952Z" fill="#231F20"/>
<path d="M87.6906 13.3225V16.8032H85.6026C84.1146 16.8032 82.9546 16.4431 82.1226 15.723C81.2906 14.9869 80.8746 13.7946 80.8746 12.1463V6.8173H79.2426V3.40865H80.8746V0.144028H84.9786V3.40865H87.6666V6.8173H84.9786V12.1943C84.9786 12.5944 85.0746 12.8825 85.2666 13.0585C85.4586 13.2345 85.7786 13.3225 86.2266 13.3225H87.6906Z" fill="#231F20"/>
<path d="M89.1606 10.0819C89.1606 8.70566 89.4166 7.49743 89.9286 6.45723C90.4566 5.41703 91.1686 4.61688 92.0646 4.05677C92.9606 3.49667 93.9606 3.21661 95.0646 3.21661C96.0086 3.21661 96.8326 3.40865 97.5366 3.79272C98.2566 4.1768 98.8086 4.68089 99.1926 5.30501V3.40865H103.297V16.8032H99.1926V14.9068C98.7926 15.531 98.2326 16.0351 97.5126 16.4191C96.8086 16.8032 95.9846 16.9952 95.0406 16.9952C93.9526 16.9952 92.9606 16.7152 92.0646 16.1551C91.1686 15.579 90.4566 14.7708 89.9286 13.7306C89.4166 12.6744 89.1606 11.4582 89.1606 10.0819ZM99.1926 10.1059C99.1926 9.08173 98.9046 8.27358 98.3286 7.68146C97.7686 7.08935 97.0806 6.79329 96.2646 6.79329C95.4486 6.79329 94.7526 7.08935 94.1766 7.68146C93.6166 8.25757 93.3366 9.05773 93.3366 10.0819C93.3366 11.1061 93.6166 11.9223 94.1766 12.5304C94.7526 13.1225 95.4486 13.4186 96.2646 13.4186C97.0806 13.4186 97.7686 13.1225 98.3286 12.5304C98.9046 11.9383 99.1926 11.1301 99.1926 10.1059Z" fill="#231F20"/>
<path d="M110.37 5.64107C110.85 4.90493 111.45 4.32883 112.17 3.91275C112.89 3.48066 113.69 3.26462 114.57 3.26462V7.60945H113.442C112.418 7.60945 111.65 7.83349 111.138 8.28158C110.626 8.71366 110.37 9.48181 110.37 10.586V16.8032H106.266V3.40865H110.37V5.64107Z" fill="#231F20"/>
<path d="M123.995 13.3225V16.8032H121.907C120.419 16.8032 119.259 16.4431 118.427 15.723C117.595 14.9869 117.179 13.7946 117.179 12.1463V6.8173H115.547V3.40865H117.179V0.144028H121.283V3.40865H123.971V6.8173H121.283V12.1943C121.283 12.5944 121.379 12.8825 121.571 13.0585C121.763 13.2345 122.083 13.3225 122.531 13.3225H123.995Z" fill="#231F20"/>
<path d="M99.9065 25.3439C99.538 24.6066 98.486 24.6066 98.1175 25.3439L96.31 28.9606C96.1632 29.2542 95.8817 29.4572 95.5568 29.5035L91.5399 30.0768C90.7154 30.1945 90.3876 31.2096 90.9874 31.7874L93.8794 34.5731C94.1187 34.8035 94.2279 35.1377 94.171 35.4649L93.4851 39.4082C93.3433 40.2235 94.1962 40.8485 94.9307 40.4676L98.5517 38.5895C98.8403 38.4398 99.1837 38.4398 99.4723 38.5895L103.094 40.4676C103.828 40.8485 104.681 40.2234 104.539 39.4082L103.853 35.4654C103.796 35.1379 103.906 34.8034 104.145 34.573L107.036 31.7923C107.636 31.215 107.309 30.1998 106.485 30.0814L102.467 29.5039C102.142 29.4573 101.861 29.2545 101.714 28.9611L99.9065 25.3439Z" fill="#6B24A4"/>
</svg>
