<svg width="501" height="91" viewBox="0 0 501 91" fill="none" xmlns="http://www.w3.org/2000/svg">
<path d="M455.521 2.39361C454.425 0.175438 451.284 0.175438 450.187 2.39361L437.896 27.2607C437.46 28.1436 436.621 28.7542 435.652 28.894L408.229 32.8513C405.776 33.2052 404.799 36.2456 406.58 37.9807L426.396 57.2809C427.105 57.9719 427.429 58.972 427.261 59.9515L422.572 87.2092C422.151 89.6573 424.696 91.5315 426.883 90.3842L451.479 77.4853C452.341 77.0331 453.368 77.0331 454.23 77.4853L478.827 90.3843C481.015 91.5315 483.56 89.6571 483.138 87.2089L478.448 59.953C478.279 58.9726 478.604 57.9717 479.314 57.2806L499.127 38.0107C500.909 36.2771 499.935 33.2365 497.483 32.8802L470.055 28.8953C469.087 28.7546 468.249 28.1444 467.813 27.2624L455.521 2.39361Z" fill="#F4F4F4"/>
<path d="M0.0400085 88.0485V54.4298H4.80689V88.0485H0.0400085Z" fill="#231F20"/>
<path d="M14.7969 88.0485V54.4298H28.8592C32.4184 54.4298 35.5487 55.1342 38.2499 56.543C40.983 57.9518 43.0963 59.9209 44.5899 62.4503C46.1153 64.9797 46.878 67.9093 46.878 71.2391C46.878 74.569 46.1153 77.4986 44.5899 80.028C43.0963 82.5574 40.983 84.5265 38.2499 85.9353C35.5487 87.3441 32.4184 88.0485 28.8592 88.0485H14.7969ZM19.5638 83.8701H28.5732C31.338 83.8701 33.7214 83.3419 35.7235 82.2853C37.7574 81.2287 39.3304 79.7559 40.4427 77.8668C41.555 75.9458 42.1111 73.7365 42.1111 71.2391C42.1111 68.7097 41.555 66.5005 40.4427 64.6115C39.3304 62.7224 37.7574 61.2496 35.7235 60.193C33.7214 59.1364 31.338 58.6081 28.5732 58.6081H19.5638V83.8701Z" fill="#231F20"/>
<path d="M58.9464 68.9339H75.6782V73.0161H58.9464V68.9339ZM58.9464 83.8701H78.3953V88.0485H54.1795V54.4298H77.7279V58.6081H58.9464V71.2391V83.8701Z" fill="#231F20"/>
<path d="M81.061 88.0485L96.172 54.4298H100.891L116.05 88.0485H111.045L97.5545 57.1193H99.4612L85.9709 88.0485H81.061ZM87.4963 79.6438L88.7834 75.8017H107.565L108.947 79.6438H87.4963Z" fill="#231F20"/>
<path d="M121.028 88.0485V54.4298H125.795V83.8701H143.861V88.0485H121.028Z" fill="#231F20"/>
<path d="M172.967 88.3846C170.52 88.3846 168.327 87.9843 166.388 87.1839C164.45 86.3834 162.893 85.1988 161.717 83.6299C160.573 82.061 159.969 80.172 159.905 77.9628H168.581C168.708 79.2115 169.137 80.172 169.868 80.8444C170.599 81.4847 171.552 81.8049 172.728 81.8049C173.936 81.8049 174.889 81.5328 175.588 80.9885C176.288 80.4121 176.637 79.6277 176.637 78.6351C176.637 77.8027 176.351 77.1143 175.779 76.57C175.239 76.0257 174.556 75.5775 173.729 75.2253C172.935 74.8731 171.791 74.4728 170.297 74.0246C168.136 73.3522 166.372 72.6798 165.006 72.0075C163.639 71.3351 162.464 70.3425 161.478 69.0298C160.493 67.7171 160.001 66.0041 160.001 63.891C160.001 60.7532 161.129 58.3039 163.385 56.5429C165.642 54.7499 168.581 53.8534 172.204 53.8534C175.89 53.8534 178.862 54.7499 181.118 56.5429C183.374 58.3039 184.582 60.7692 184.741 63.939H175.922C175.859 62.8504 175.461 62.0019 174.73 61.3936C173.999 60.7532 173.062 60.433 171.918 60.433C170.933 60.433 170.138 60.7052 169.535 61.2495C168.931 61.7618 168.629 62.5142 168.629 63.5067C168.629 64.5954 169.137 65.4438 170.154 66.0522C171.171 66.6605 172.76 67.3169 174.921 68.0213C177.082 68.7577 178.83 69.4621 180.165 70.1344C181.531 70.8068 182.707 71.7833 183.692 73.0641C184.677 74.3448 185.17 75.9937 185.17 78.0108C185.17 79.9319 184.677 81.6768 183.692 83.2457C182.739 84.8146 181.34 86.0633 179.497 86.9918C177.654 87.9203 175.477 88.3846 172.967 88.3846Z" fill="#231F20"/>
<path d="M215.212 54.3337V60.9133H206.346V88.0484H198.195V60.9133H189.328V54.3337H215.212Z" fill="#231F20"/>
<path d="M241.088 82.0931H228.599L226.597 88.0484H218.064L230.172 54.3337H239.61L251.718 88.0484H243.09L241.088 82.0931ZM238.991 75.7535L234.843 63.4107L230.744 75.7535H238.991Z" fill="#231F20"/>
<path d="M273.422 88.0484L266.462 75.3213H264.508V88.0484H256.357V54.3337H270.038C272.675 54.3337 274.916 54.7979 276.759 55.7264C278.634 56.6549 280.032 57.9357 280.954 59.5686C281.875 61.1695 282.336 62.9624 282.336 64.9475C282.336 67.1888 281.701 69.1899 280.429 70.9509C279.19 72.7119 277.347 73.9606 274.9 74.697L282.622 88.0484H273.422ZM264.508 69.5101H269.561C271.054 69.5101 272.167 69.1419 272.898 68.4055C273.66 67.6691 274.042 66.6285 274.042 65.2837C274.042 64.003 273.66 62.9945 272.898 62.2581C272.167 61.5216 271.054 61.1534 269.561 61.1534H264.508V69.5101Z" fill="#231F20"/>
<path d="M312.479 54.3337V60.9133H303.613V88.0484H295.461V60.9133H286.595V54.3337H312.479Z" fill="#231F20"/>
<path d="M366.59 54.3337V88.0484H358.438V67.8292L350.954 88.0484H344.376L336.844 67.7812V88.0484H328.693V54.3337H338.322L347.713 77.6747L357.008 54.3337H366.59Z" fill="#6B24A4"/>
<path d="M381.556 60.9134V67.7332H392.472V74.0727H381.556V81.4688H393.902V88.0484H373.405V54.3337H393.902V60.9134H381.556Z" fill="#6B24A4"/>
<path d="M412.685 54.3337C416.212 54.3337 419.295 55.0381 421.932 56.4469C424.57 57.8557 426.604 59.8408 428.034 62.4022C429.496 64.9316 430.227 67.8612 430.227 71.1911C430.227 74.4889 429.496 77.4185 428.034 79.98C426.604 82.5414 424.554 84.5265 421.885 85.9353C419.247 87.3441 416.18 88.0484 412.685 88.0484H400.148V54.3337H412.685ZM412.16 80.9405C415.243 80.9405 417.642 80.092 419.358 78.3951C421.074 76.6981 421.932 74.2968 421.932 71.1911C421.932 68.0854 421.074 65.668 419.358 63.9391C417.642 62.2101 415.243 61.3456 412.16 61.3456H408.299V80.9405H412.16Z" fill="#6B24A4"/>
<path d="M443.887 54.3337V88.0484H435.735V54.3337H443.887Z" fill="#6B24A4"/>
<path d="M471.579 82.0931H459.089L457.087 88.0484H448.555L460.663 54.3337H470.101L482.209 88.0484H473.581L471.579 82.0931ZM469.481 75.7536L465.334 63.4108L461.235 75.7536H469.481Z" fill="#6B24A4"/>
</svg>
