<svg width="17" height="17" viewBox="0 0 17 17" fill="none" xmlns="http://www.w3.org/2000/svg">
<path d="M9.39607 0.80874C9.02875 0.0672999 7.97125 0.0672999 7.60393 0.80874L5.79696 4.45617C5.65089 4.75103 5.3691 4.95515 5.0434 5.00204L1.01279 5.58233C0.191107 5.70063 -0.136968 6.71076 0.458395 7.2893L3.37186 10.1204C3.60851 10.3504 3.71648 10.6823 3.66042 11.0075L2.97106 15.006C2.83033 15.8223 3.6862 16.4459 4.42013 16.0619L8.03641 14.1697C8.3268 14.0178 8.67321 14.0178 8.9636 14.1697L12.5802 16.0619C13.3142 16.4459 14.17 15.8222 14.0293 15.0059L13.3397 11.008C13.2836 10.6825 13.3917 10.3503 13.6288 10.1203L16.5411 7.29426C17.1368 6.71622 16.8096 5.70602 15.9882 5.58695L11.9559 5.00246C11.6306 4.9553 11.3492 4.75127 11.2033 4.45672L9.39607 0.80874Z" fill="#6B24A4"/>
</svg>
