<svg width="22" height="23" viewBox="0 0 22 23" fill="none" xmlns="http://www.w3.org/2000/svg">
<path d="M0 11.4636C0 17.4844 4.92487 22.3652 11 22.3652C17.0751 22.3652 22 17.4844 22 11.4636C22 5.44274 17.0751 0.56189 11 0.56189C4.92487 0.56189 0 5.44274 0 11.4636Z" fill="#0088CC"/>
<path d="M5.56869 11.2648C8.52148 9.98983 10.4905 9.14929 11.4756 8.74318C14.2886 7.58365 14.8731 7.38223 15.254 7.37551C15.3378 7.37412 15.5252 7.3947 15.6465 7.49229C15.749 7.57469 15.7772 7.68601 15.7907 7.76414C15.8042 7.84227 15.821 8.02025 15.8076 8.15932C15.6552 9.74662 14.9956 13.5986 14.6601 15.3764C14.5181 16.1287 14.2385 16.3809 13.9678 16.4056C13.3796 16.4592 12.933 16.0203 12.3633 15.6502C11.4718 15.0711 10.9682 14.7105 10.1028 14.1454C9.10279 13.4923 9.75108 13.1333 10.321 12.5466C10.4701 12.3931 13.0618 10.0569 13.112 9.84495C13.1182 9.81845 13.124 9.71965 13.0648 9.66748C13.0056 9.61531 12.9182 9.63315 12.8551 9.64734C12.7657 9.66745 11.3416 10.6003 8.58267 12.446C8.17844 12.7211 7.81229 12.8552 7.48423 12.8481C7.12258 12.8404 6.4269 12.6455 5.90974 12.4789C5.27541 12.2745 4.77126 12.1665 4.81516 11.8194C4.83803 11.6387 5.08921 11.4538 5.56869 11.2648Z" fill="white"/>
</svg>
