<svg width="16" height="16" viewBox="0 0 16 16" fill="none" xmlns="http://www.w3.org/2000/svg">
<circle cx="8.00002" cy="7.99984" r="5.93333" fill="#7E869E" fill-opacity="0.25" stroke="#231F20" stroke-width="1.2"/>
<path d="M11 8.59984C11.3314 8.59984 11.6 8.33121 11.6 7.99984C11.6 7.66847 11.3314 7.39984 11 7.39984V8.59984ZM8.6 5.6665C8.6 5.33513 8.33137 5.0665 8 5.0665C7.66863 5.0665 7.4 5.33513 7.4 5.6665H8.6ZM11 7.39984H8.25V8.59984H11V7.39984ZM8.6 7.74984V5.6665H7.4V7.74984H8.6ZM8.25 7.39984C8.4433 7.39984 8.6 7.55654 8.6 7.74984H7.4C7.4 8.21928 7.78056 8.59984 8.25 8.59984V7.39984Z" fill="#231F20"/>
</svg>
