<svg width="18" height="18" viewBox="0 0 18 18" fill="none" xmlns="http://www.w3.org/2000/svg">
<path d="M11.25 16.5H6.75V15H11.25V16.5ZM11.25 14.25H6.75L6.58275 12.75C6.49277 12.2538 6.34397 11.7702 6.1395 11.3093C5.874 10.9343 5.59725 10.614 5.3295 10.3012C4.34559 9.37898 3.77599 8.09833 3.75 6.75C3.75 3.85051 6.10051 1.5 9 1.5C11.8995 1.5 14.25 3.85051 14.25 6.75C14.2195 8.0901 13.6543 9.36233 12.6802 10.2833L12.6675 10.2982C12.4005 10.611 12.1245 10.935 11.8643 11.3062C11.66 11.7684 11.5107 12.253 11.4195 12.75L11.25 14.25ZM9 3C6.92996 3.00248 5.25248 4.67996 5.25 6.75C5.25 7.908 5.733 8.46975 6.4635 9.321C6.741 9.645 7.056 10.011 7.3635 10.4392C7.73668 11.1644 7.99164 11.9445 8.11875 12.75H9.882C10.0124 11.9468 10.2669 11.1687 10.6365 10.4438C10.9365 10.0155 11.2507 9.64725 11.5275 9.32325L11.5388 9.30975C12.2678 8.45475 12.75 7.89 12.75 6.75C12.7475 4.67996 11.07 3.00248 9 3Z" fill="#231F20"/>
</svg>
