<svg width="18" height="18" viewBox="0 0 18 18" fill="none" xmlns="http://www.w3.org/2000/svg">
<path d="M9 6.00011C8.17157 6.00011 7.5 6.67168 7.5 7.50011C7.5 8.32853 8.17157 9.00011 9 9.00011C9.82843 9.00011 10.5 8.32853 10.5 7.50011C10.5 6.67168 9.82843 6.00011 9 6.00011Z" fill="#231F20"/>
<path fill-rule="evenodd" clip-rule="evenodd" d="M6.375 13.1018C7.17464 14.0562 8.0527 14.9421 9 15.7501C9.9473 14.9421 10.8254 14.0562 11.625 13.1018C12.825 11.6686 14.25 9.5341 14.25 7.5001C14.2544 6.10689 13.7013 4.7698 12.714 3.78685C11.2126 2.28403 8.95342 1.83415 6.9908 2.64715C5.02819 3.46014 3.74894 5.37576 3.75 7.5001C3.75 9.5341 5.175 11.6686 6.375 13.1018ZM5.25 7.5001C5.25248 5.43006 6.92996 3.75258 9 3.7501C11.07 3.75258 12.7475 5.43006 12.75 7.5001C12.75 8.37385 12.3548 9.8881 10.4745 12.1418C10.0104 12.6945 9.51828 13.2229 9 13.7251C8.48176 13.2223 7.98986 12.6931 7.52625 12.1396C5.64525 9.88885 5.25 8.3746 5.25 7.5001Z" fill="#231F20"/>
</svg>
