<svg width="18" height="18" viewBox="0 0 18 18" fill="none" xmlns="http://www.w3.org/2000/svg">
<path d="M9 16.5C4.85786 16.5 1.5 13.1421 1.5 9C1.5 4.85786 4.85786 1.5 9 1.5C13.1421 1.5 16.5 4.85786 16.5 9C16.4955 13.1403 13.1403 16.4955 9 16.5ZM8.988 15H9C12.3125 14.9967 14.9957 12.3095 14.994 8.997C14.9923 5.68447 12.3065 3 8.994 3C5.68146 3 2.99566 5.68447 2.994 8.997C2.99234 12.3095 5.67546 14.9967 8.988 15ZM7.5 12.75L4.5 9.75L5.5575 8.6925L7.5 10.6275L12.4425 5.685L13.5 6.75L7.5 12.75Z" fill="#231F20"/>
</svg>
