<svg width="22" height="22" viewBox="0 0 22 22" fill="none" xmlns="http://www.w3.org/2000/svg">
<path d="M11 0C8.08262 0 5.28473 1.15893 3.22183 3.22183C1.15893 5.28473 0 8.08262 0 11C0 13.9174 1.15893 16.7153 3.22183 18.7782C5.28473 20.8411 8.08262 22 11 22C13.9174 22 16.7153 20.8411 18.7782 18.7782C20.8411 16.7153 22 13.9174 22 11C22 8.08262 20.8411 5.28473 18.7782 3.22183C16.7153 1.15893 13.9174 0 11 0V0Z" fill="#1976D2"/>
<path d="M17.9631 7.5552C17.9899 7.47467 18.0027 7.4 17.9992 7.33333C17.9905 7.14027 17.8452 7 17.5034 7H15.9763C15.5907 7 15.4128 7.21333 15.3089 7.4272C15.3089 7.4272 14.3569 9.21867 13.2597 10.4C12.9039 10.7419 12.7231 10.7333 12.5306 10.7333C12.4273 10.7333 12.1666 10.6192 12.1666 10.3061V7.5408C12.1666 7.17067 12.0656 7 11.7396 7H9.02768C8.79027 7 8.6666 7.17067 8.6666 7.34187C8.6666 7.6976 9.19043 7.78293 9.24993 8.77973V10.712C9.24993 11.1813 9.16068 11.2667 8.96818 11.2667C8.44902 11.2667 7.42704 9.66667 6.7428 7.5696C6.59463 7.1568 6.44647 7 6.06089 7H4.51916C4.07408 7 4 7.19947 4 7.4128C4 7.79733 4.35 9.87627 6.26039 12.2667C7.64578 14 9.47101 15 11.0868 15C12.0656 15 12.166 14.7723 12.166 14.4165V12.8315C12.1666 12.4043 12.2733 12.3333 12.5848 12.3333C12.807 12.3333 13.2603 12.4667 14.1353 13.4C15.1444 14.4763 15.3276 15 15.9063 15H17.4334C17.7881 15 17.9916 14.864 17.9998 14.6C18.0016 14.5328 17.9911 14.4576 17.9671 14.3739C17.854 14.0667 17.3348 13.3157 16.6873 12.6C16.3286 12.2037 15.9745 11.8112 15.8118 11.5979C15.7027 11.4587 15.6613 11.3605 15.6665 11.2667C15.6718 11.168 15.7278 11.0741 15.8118 10.9429C15.7966 10.9429 17.7706 8.40907 17.9631 7.5552Z" fill="white"/>
</svg>
