<svg width="22" height="23" viewBox="0 0 22 23" fill="none" xmlns="http://www.w3.org/2000/svg">
<path d="M0 11.4636C0 17.4844 4.92487 22.3652 11 22.3652C17.0751 22.3652 22 17.4844 22 11.4636C22 5.44274 17.0751 0.56189 11 0.56189C4.92487 0.56189 0 5.44274 0 11.4636Z" fill="#116A97"/>
<path d="M10.868 10.3579C10.868 10.7685 10.7373 11.1185 10.476 11.4079C10.224 11.6972 9.846 11.8839 9.342 11.9679V12.0239C9.874 12.0892 10.2987 12.2712 10.616 12.5699C10.9427 12.8685 11.106 13.2512 11.106 13.7179C11.106 14.0445 11.0407 14.3479 10.91 14.6279C10.7887 14.9079 10.5927 15.1505 10.322 15.3559C10.0513 15.5612 9.70133 15.7199 9.272 15.8319C8.852 15.9439 8.33867 15.9999 7.732 15.9999H4.092V8.35588H7.732C8.32933 8.35588 8.86133 8.42121 9.328 8.55188C9.804 8.67321 10.1773 8.87854 10.448 9.16788C10.728 9.45721 10.868 9.85388 10.868 10.3579ZM8.95 13.6059C8.95 13.3072 8.83333 13.0925 8.6 12.9619C8.36667 12.8219 8.01667 12.7519 7.55 12.7519H6.178V14.5579H7.592C7.984 14.5579 8.306 14.4879 8.558 14.3479C8.81933 14.1985 8.95 13.9512 8.95 13.6059ZM8.754 10.5259C8.754 10.2832 8.66067 10.1059 8.474 9.99388C8.28733 9.88188 8.012 9.82588 7.648 9.82588H6.178V11.3379H7.41C7.84867 11.3379 8.18 11.2772 8.404 11.1559C8.63733 11.0252 8.754 10.8152 8.754 10.5259ZM16.2287 8.35588H18.5247L15.5007 12.0239L18.7907 15.9999H16.4247L13.3027 12.1219V15.9999H11.2167V8.35588H13.3027V12.0659L16.2287 8.35588Z" fill="white"/>
</svg>
