<svg width="22" height="23" viewBox="0 0 22 23" fill="none" xmlns="http://www.w3.org/2000/svg">
<path d="M0 11.4636C0 17.4844 4.92487 22.3652 11 22.3652C17.0751 22.3652 22 17.4844 22 11.4636C22 5.44274 17.0751 0.56189 11 0.56189C4.92487 0.56189 0 5.44274 0 11.4636Z" fill="#25D366"/>
<path fill-rule="evenodd" clip-rule="evenodd" d="M14.85 7.57984C13.8188 6.55781 12.4437 6.01273 11 6.01273C7.975 6.01273 5.5 8.4656 5.5 11.4636C5.5 12.4175 5.775 13.3714 6.25625 14.189L5.5 16.9144L8.38751 16.1649C9.21251 16.5737 10.1062 16.8463 11 16.8463C14.025 16.8463 16.5 14.3934 16.5 11.3954C16.5 9.96458 15.8813 8.60187 14.85 7.57984ZM11 15.9605C10.175 15.9605 9.35 15.7561 8.6625 15.3473L8.525 15.2792L6.80625 15.7561L7.2875 14.1208L7.15 13.9164C6.66875 13.167 6.4625 12.3493 6.4625 11.5317C6.4625 9.07882 8.525 7.03476 11 7.03476C12.2375 7.03476 13.3375 7.51171 14.2313 8.32933C15.125 9.21509 15.5375 10.3053 15.5375 11.5317C15.5375 13.9164 13.5437 15.9605 11 15.9605ZM13.475 12.5537C13.3375 12.4856 12.65 12.1449 12.5125 12.1449C12.375 12.0768 12.3062 12.0768 12.2375 12.2131C12.1687 12.3493 11.8938 12.6219 11.825 12.7581C11.7563 12.8263 11.6875 12.8263 11.55 12.8263C11.4125 12.7581 11 12.6219 10.45 12.1449C10.0375 11.8042 9.7625 11.3273 9.69375 11.191C9.625 11.0548 9.69376 10.9866 9.76251 10.9185C9.83126 10.8503 9.9 10.7822 9.96875 10.7141C10.0375 10.6459 10.0375 10.5778 10.1063 10.5097C10.175 10.4415 10.1063 10.3734 10.1063 10.3053C10.1063 10.2371 9.83125 9.55577 9.69375 9.28323C9.625 9.07882 9.48751 9.07882 9.41876 9.07882C9.35001 9.07882 9.28124 9.07882 9.14374 9.07882C9.07499 9.07882 8.93749 9.07882 8.79999 9.21509C8.66249 9.35136 8.31875 9.69204 8.31875 10.3734C8.31875 11.0548 8.8 11.668 8.86875 11.8042C8.9375 11.8724 9.83124 13.3032 11.2062 13.8483C12.375 14.3253 12.5813 14.189 12.8563 14.189C13.1313 14.189 13.6812 13.8483 13.75 13.5758C13.8875 13.2351 13.8875 12.9625 13.8188 12.9625C13.75 12.6219 13.6125 12.6219 13.475 12.5537Z" fill="white"/>
</svg>
